# xmcd
#
# Track frame offsets: 
#        150
#        11688
#        26683
#        42571
#        57610
#        71496
#        90411
#        104212
#        117136
#        134852
#        147118
#        162375
#        175770
#
# Disc length: 2620 seconds
#
# Revision: 1
# Processed by: cddbd v1.5.2PL0 Copyright (c) Steve Scherf et al.
# Submitted via: ExactAudioCopy v1.0b3
#
DISCID=c00a3a0d
DTITLE=Fucktory - Rhythm and Bounce (Mixtape) CD 1
DYEAR=2006
DGENRE=R&B
TTITLE0=Fucktory - Скажи кто, детка feat. ***** **
TTITLE1=Fucktory - Алла feat. Maestro A-Sid
TTITLE2=5iviestaFamaly - Пуэрто-Рико
TTITLE3=1.8.7. - Дни как цвета
TTITLE4=B-reign - Up and down feat. Ras Dogg
TTITLE5=E-Smile - Улетая вверх feat. Personage Marz
TTITLE6=UmBriaco - Хеллоуин
TTITLE7=Ghetto Voice - In da club feat. Masta Bass
TTITLE8=Personage Marz - Без тебя feat. Lady Jane
TTITLE9=Кажэ Обойма - Joe Crazy (Fucktory remix)
TTITLE10=Masta Bass - Хочешь
TTITLE11=Мал Да Удал (MDU) - SMS feat. Joker (remix)
TTITLE12=Ghetto Voice - Ghetto party feat. Fucktory
EXTD=Fucktory - Rhiythm&Bounce cd1
EXTT0=
EXTT1=
EXTT2=
EXTT3=
EXTT4=
EXTT5=
EXTT6=
EXTT7=
EXTT8=
EXTT9=
EXTT10=
EXTT11=
EXTT12=
PLAYORDER=
